HIERARCHY
ROOT pelvis
{
  OFFSET 0 100 0
  CHANNELS 6 Xposition Yposition Zposition Zrotation Xrotation Yrotation
  JOINT pelvis_right_femur
  {
    OFFSET -10.78128 -3.44521 -0.5502486
    CHANNELS 3 Zrotation Xrotation Yrotation
    JOINT right_femur_tibia
    {
      OFFSET -0.8047443 -44.0398 -0.1307829
      CHANNELS 3 Zrotation Xrotation Yrotation
      JOINT right_tibia_foot
      {
        OFFSET 3.006224 -47.83518 -5
        CHANNELS 3 Zrotation Xrotation Yrotation
        End Site
        {
          OFFSET 0 -5 15
        }
      }
    }
  }
  JOINT pelvis_left_femur
  {
    OFFSET 10.78128 -3.44521 -0.5502486
    CHANNELS 3 Zrotation Xrotation Yrotation
    JOINT left_femur_tibia
    {
      OFFSET 0.8047443 -44.0398 -0.1307829
      CHANNELS 3 Zrotation Xrotation Yrotation
      JOINT left_tibia_foot
      {
        OFFSET -4.370144 -48.10324 -4.275266
        CHANNELS 3 Zrotation Xrotation Yrotation
        End Site
        {
          OFFSET 0 -5 15
        }
      }
    }
  }
  JOINT pelvis_spine1
  {
    OFFSET 0 6.468898 -3.129235
    CHANNELS 3 Zrotation Xrotation Yrotation
    JOINT spine1
    {
      OFFSET 0 23.15396 4.99043
      CHANNELS 3 Zrotation Xrotation Yrotation
      JOINT spine2
      {
        OFFSET 0 20.79997 -5.064912
        CHANNELS 3 Zrotation Xrotation Yrotation
        JOINT neck
        {
          OFFSET 0 14.38658 9.616178
          CHANNELS 3 Zrotation Xrotation Yrotation
          End Site
          {
            OFFSET 0 20 0
          }
        }
      }
      JOINT right_manubrium
      {
        OFFSET -5.722621 16.35077 3.967754
        CHANNELS 3 Zrotation Xrotation Yrotation
        JOINT right_clavicle
        {
          OFFSET -13.16364 1.694482 -4.693211
          CHANNELS 3 Zrotation Xrotation Yrotation
          JOINT right_humerus
          {
            OFFSET -28.5034 -0.3100689 -2.792744
            CHANNELS 3 Zrotation Xrotation Yrotation
            JOINT right_radius
            {
              OFFSET -25.15693 0.02248979 -1.271978
              CHANNELS 3 Zrotation Xrotation Yrotation
              End Site
              {
                OFFSET -15 0 0
              }
            }
          }
        }
      }
      JOINT left_manubrium
      {
        OFFSET 5.722621 16.35077 3.967754
        CHANNELS 3 Zrotation Xrotation Yrotation
        JOINT left_clavicle
        {
          OFFSET 13.16364 1.694482 -4.693211
          CHANNELS 3 Zrotation Xrotation Yrotation
          JOINT left_humerus
          {
            OFFSET 29.39168 -1.063119 -2.237045
            CHANNELS 3 Zrotation Xrotation Yrotation
            JOINT left_radius
            {
              OFFSET 24.59957 -0.9528479 0.9047498
              CHANNELS 3 Zrotation Xrotation Yrotation
              End Site
              {
                OFFSET 15 -0 -0
              }
            }
          }
        }
      }
    }
  }
}
MOTION
Frames: 11
Frame Time: 0.0416666666667
636.9953 107.5103 2780.548 2.096582 -3.600853 20.20012 0.7117619 -27.08381 -1.596063 -0 16.78401 -0 -3.326424 2.176718 -5.178671 -5.350734 14.56807 -8.906755 -0 11.47844 -0 -2.301371 -20.86925 12.81929 -2.14533 -0.09906506 2.911374 4.00695 9.425781 -8.851071 0.6194083 20.52925 6.766772 3.386234 -23.92947 6.828471 6.162109 -15.59938 12.47378 86.04055 33.35572 -20.39216 -0 0 9.116879 -14.06081 11.4678 10.23149 4.116505 -20.16056 -3.226647 -87.84703 24.11555 15.12028 0 0 -21.25473 1.535831 10.1656 11.39492
638.9992 106.2516 2786.028 1.64695 -2.419382 20.59624 1.21639 -29.19112 -2.076195 -0 11.08761 -0 -3.637408 2.430568 -4.591908 -5.474743 16.1717 -8.941754 -0 13.21932 -0 -2.386577 -21.40473 12.22822 -2.17076 -0.197734 2.56231 4.403884 9.084412 -9.217983 0.4967699 20.26854 6.969266 3.39664 -24.34002 6.90233 6.115922 -15.46734 12.55703 86.2685 33.1575 -21.07943 -0 0 8.847212 -13.67811 11.48888 10.19822 4.17576 -20.24176 -3.152383 -87.68544 24.22617 14.7658 0 0 -21.98175 1.087092 10.11958 11.67579
641.0499 105.1163 2791.79 1.074064 -1.544292 20.96037 2.156973 -30.37921 -2.043081 -0 7.912125 -0 -4.216194 3.074778 -3.969905 -5.411283 17.14438 -8.849171 -0 16.38217 -0 -2.440843 -20.99166 11.69462 -2.188054 -0.2512592 2.383609 4.610701 8.90703 -9.412785 0.4197061 20.13886 7.07705 3.399104 -24.50422 6.916401 6.082657 -15.40835 12.61032 86.38619 33.05359 -21.43974 -0 0 8.71601 -13.56127 11.53457 10.22104 4.188252 -20.29181 -3.139876 -87.59556 24.29181 14.60531 0 0 -22.37742 0.7594601 10.07282 11.9342
643.1624 104.2878 2797.846 0.4056491 -1.054994 21.27585 3.494624 -30.52188 -1.415563 -0 6.987143 -0 -4.893908 3.72171 -3.492693 -5.101533 17.49566 -8.636129 -0 21.1029 -0 -2.856126 -19.56446 11.02149 -2.201847 -0.2548985 2.359997 4.637136 8.896588 -9.443495 0.3957671 20.15061 7.079353 3.383433 -24.43747 6.878868 6.080676 -15.4004 12.63131 86.4152 33.05458 -21.51001 -0 0 8.687193 -13.6673 11.59989 10.2757 4.139747 -20.29415 -3.195352 -87.57193 24.346 14.61111 0 0 -22.43684 0.5434519 10.04139 12.17512
645.3381 103.9314 2804.175 -0.3188747 -0.9115947 21.48758 5.096511 -29.37681 -0.1619129 -0 7.909731 -0 -5.451263 3.876959 -3.330641 -4.541652 17.05388 -8.367649 -0 27.51322 -0 -3.899381 -17.08461 10.13428 -2.214945 -0.2160833 2.466973 4.512381 9.021419 -9.33268 0.4205355 20.28728 6.988676 3.348141 -24.18664 6.803949 6.109154 -15.43798 12.62406 86.36258 33.14989 -21.32857 -0 0 8.756432 -13.94058 11.67535 10.34834 4.032061 -20.24155 -3.302641 -87.6202 24.4243 14.77497 0 0 -22.19806 0.403579 10.03725 12.42318
647.5511 104.1791 2810.678 -1.029689 -0.9835216 21.51331 6.693722 -26.6828 1.602438 -0 10.16348 -0 -5.771052 3.011939 -3.555986 -3.811444 15.41193 -8.158615 -0 35.60773 -0 -5.484475 -13.64294 9.216312 -2.227214 -0.1466676 2.684841 4.264873 9.241557 -9.103557 0.4844119 20.52071 6.827714 3.298974 -23.79737 6.703771 6.157219 -15.52595 12.59457 86.22385 33.32478 -20.92216 -0 0 8.937552 -14.34505 11.75906 10.43712 3.879152 -20.13848 -3.437365 -87.7467 24.54722 15.09739 0 0 -21.72062 0.3032649 10.06494 12.70531
649.7413 105.0725 2817.148 -1.557953 -1.142604 21.27747 7.84096 -22.3965 3.41721 -0 12.90839 -0 -6.022653 0.8322357 -3.988185 -3.11678 12.03369 -8.109186 -0 44.90067 -0 -7.068789 -9.726674 8.674592 -2.2352 -0.05847375 3.005062 3.91257 9.522502 -8.773412 0.5767819 20.81866 6.622174 3.247477 -23.29934 6.585367 6.210092 -15.67508 12.54787 85.98418 33.56723 -20.29955 -0 0 9.255058 -14.87695 11.86249 10.55149 3.704902 -20.00063 -3.573621 -87.95193 24.71228 15.57884 0 0 -21.0741 0.2195472 10.1197 13.03906
651.835 106.4701 2823.322 -1.566881 -1.442807 20.76744 8.070786 -16.95917 4.496393 -0 14.81474 -0 -6.537235 -2.24809 -4.19638 -2.742308 6.705932 -8.17148 -0 54.01263 -0 -7.911333 -6.390327 8.867951 -2.232677 0.03660677 3.426864 3.466591 9.83274 -8.355948 0.6861723 21.1434 6.401328 3.20997 -22.71344 6.453156 6.250184 -15.90049 12.4878 85.61829 33.86382 -19.45434 -0 0 9.743482 -15.55485 12.00699 10.70948 3.542522 -19.85176 -3.682383 -88.23041 24.89696 16.21645 0 0 -20.33776 0.1435591 10.18818 13.42945
653.7933 108.0221 2829.036 -0.7337615 -2.169226 20.08424 7.304533 -11.10555 4.450185 -0 14.7476 -0 -7.092473 -5.078368 -3.921362 -2.746947 0.05807402 -8.069946 -0 60.7503 -0 -7.805599 -4.682682 9.857612 -2.212118 0.1249209 3.94796 2.941605 10.13542 -7.868198 0.7988429 21.44914 6.200039 3.205181 -22.06735 6.313018 6.257399 -16.21908 12.41829 85.09421 34.1924 -18.37648 -0 0 10.44387 -16.39752 12.21475 10.93278 3.43179 -19.71818 -3.729667 -88.57324 25.06947 17.00251 0 0 -19.60185 0.0723688 10.25219 13.87209
655.6354 109.3315 2834.355 0.7303802 -3.373137 19.41036 6.045685 -5.232983 3.962448 -0 12.95884 -0 -6.796271 -6.935355 -3.422411 -2.686604 -6.797495 -7.487791 -0 62.97403 -0 -7.422753 -4.596799 11.49573 -2.166822 0.1917844 4.558496 2.360859 10.38793 -7.333325 0.8994559 21.687 6.055218 3.249832 -21.39943 6.173194 6.212269 -16.64525 12.34374 84.38072 34.52056 -17.06271 -0 0 11.39466 -17.4114 12.50232 11.24225 3.411313 -19.62154 -3.681589 -88.96972 25.20018 17.92385 0 0 -18.95862 -0.0001710715 10.29278 14.36052
657.4002 110.1431 2839.458 2.013481 -4.526052 18.82623 5.001981 0.4996645 3.726348 -0 10.66922 -0 -5.689197 -8.410068 -2.960436 -2.003401 -13.15548 -6.423582 -0 59.60889 -0 -7.245489 -5.237861 13.54239 -2.093092 0.2251247 5.243097 1.751681 10.55147 -6.776313 0.9743648 21.81397 5.998042 3.354409 -20.74727 6.041697 6.09975 -17.18789 12.26854 83.45211 34.80705 -15.51529 -0 0 12.62488 -18.60107 12.8823 11.6596 3.509862 -19.57228 -3.513025 -89.40498 25.26171 18.96041 0 0 -18.48415 -0.08592258 10.28854 14.89011
